<svg width="16" height="13" viewBox="0 0 16 13" fill="none" xmlns="http://www.w3.org/2000/svg">
<g clip-path="url(#clip0)">
<path d="M8.00009 7.20866L14.9092 0.688976C14.7274 0.594488 14.4546 0.5 14.1819 0.5H1.81827C1.45463 0.5 1.18191 0.594488 0.90918 0.783465L8.00009 7.20866Z" fill="white"/>
<path d="M16.0001 2.38969C16.0001 2.10623 15.9092 1.82277 15.8182 1.63379L11.1819 5.98025L15.8182 11.3661C15.9092 11.1771 16.0001 10.8936 16.0001 10.6102V2.38969Z" fill="white"/>
<path d="M10.2727 6.83081L8 9.00404L5.72727 6.9253L1 12.4056C1.27273 12.5001 1.54545 12.5946 1.81818 12.5946H14.1818C14.4545 12.5946 14.7273 12.5001 15 12.4056L10.2727 6.83081Z" fill="white"/>
<path d="M0.0909091 1.72827C0 1.91725 0 2.20071 0 2.38969V10.6102C0 10.8936 0.0909091 11.0826 0.181818 11.3661L4.81818 5.98024L0.0909091 1.72827Z" fill="white"/>
</g>
<defs>
<clipPath id="clip0">
<rect width="16" height="12" fill="white" transform="translate(0 0.5)"/>
</clipPath>
</defs>
</svg>
