<svg width="11" height="16" viewBox="0 0 11 16" fill="none" xmlns="http://www.w3.org/2000/svg">
<path d="M11 13.3734V13.2215C11 12.7658 10.5561 12.1582 10.1122 11.8544L8.63262 10.943C8.18874 10.6392 7.59689 10.7911 7.15301 10.943L6.4132 11.3987C4.34174 10.3354 3.01009 8.20886 2.86213 5.77848L3.60193 5.32278C4.04582 5.01899 4.34174 4.41139 4.34174 3.9557V2.13291C4.34174 1.67722 4.04582 1.06962 3.60193 0.765823L3.30601 0.613924C3.01009 0.462025 2.27028 0.462025 1.8264 0.613924L0.790668 1.37342C0.642707 1.52532 0.346784 1.98101 0.346784 1.98101C-0.393022 4.86709 0.0508616 8.05696 1.67844 10.4873C3.15805 13.0696 5.67339 14.8924 8.48466 15.5C8.48466 15.5 8.92854 15.5 9.22446 15.3481L10.4082 14.7405C10.7041 14.4367 11 13.8291 11 13.3734Z" fill="white"/>
</svg>
