<svg width="16" height="13" viewBox="0 0 16 13" fill="none" xmlns="http://www.w3.org/2000/svg">
<g clip-path="url(#clip0)">
<path d="M4.23535 8.71465C5.49025 7.42606 6.74516 6.13747 8.00006 4.84888C9.25496 6.05693 10.5099 7.34552 11.7648 8.63411C10.5099 9.9227 9.25496 11.2113 8.00006 12.4193C6.74516 11.2113 5.49025 10.0032 4.23535 8.71465Z" fill="white"/>
<path d="M0 4.28523C1.2549 2.99664 2.5098 1.70805 3.76471 0.5C5.01961 1.70805 6.27451 2.99664 7.52941 4.28523C6.27451 5.57383 5.01961 6.86242 3.76471 8.07047C2.5098 6.86242 1.2549 5.57383 0 4.28523Z" fill="white"/>
<path d="M12.2354 8.07047C11.0589 6.86242 9.80404 5.57383 8.4707 4.28523C9.72561 2.99664 10.9805 1.70805 12.2354 0.5C13.4903 1.70805 14.7452 2.99664 16.0001 4.28523C14.7452 5.57383 13.4903 6.86242 12.2354 8.07047Z" fill="white"/>
</g>
<defs>
<clipPath id="clip0">
<rect width="16" height="12" fill="white" transform="translate(0 0.5)"/>
</clipPath>
</defs>
</svg>
