<svg width="21" height="18" viewBox="0 0 21 18" fill="none" xmlns="http://www.w3.org/2000/svg">
<path d="M19.3544 3.27273H6.34164L5.68277 0.654545C5.60041 0.245455 5.27098 0 4.85918 0H0V3.27273H3.04728L4.44739 11.7C4.6121 12.5182 5.27098 13.0909 6.09457 13.0909H17.2954C18.119 13.0909 18.7779 12.5182 18.9426 11.7L20.178 4.17273C20.2603 3.68182 19.9309 3.27273 19.3544 3.27273Z" fill="white"/>
<path d="M6.75331 18C7.89045 18 8.81228 17.0842 8.81228 15.9545C8.81228 14.8248 7.89045 13.9091 6.75331 13.9091C5.61617 13.9091 4.69434 14.8248 4.69434 15.9545C4.69434 17.0842 5.61617 18 6.75331 18Z" fill="white"/>
<path d="M16.6366 18C17.7738 18 18.6956 17.0842 18.6956 15.9545C18.6956 14.8248 17.7738 13.9091 16.6366 13.9091C15.4995 13.9091 14.5776 14.8248 14.5776 15.9545C14.5776 17.0842 15.4995 18 16.6366 18Z" fill="white"/>
</svg>
