<svg width="12" height="23" viewBox="0 0 12 23" fill="none" xmlns="http://www.w3.org/2000/svg">
<path fill-rule="evenodd" clip-rule="evenodd" d="M9.5122 4.16667C10.2439 4.16667 10.9756 4.16667 11.7073 4.16667C11.8537 4.16667 11.8537 4.16667 12 4.16667V0.641026C11.561 0.641026 11.122 0.641026 10.8293 0.5C10.0976 0.5 9.36585 0.5 8.63415 0.5C7.46342 0.5 6.43902 0.782051 5.56098 1.48718C4.39024 2.19231 3.95122 3.17949 3.65854 4.44872C3.5122 4.87179 3.5122 5.4359 3.5122 5.85897C3.5122 6.70513 3.5122 7.41026 3.5122 8.25641V8.53846H0V12.4872H3.5122V22.5H7.7561V12.6282H11.2683C11.4146 11.2179 11.7073 9.94872 11.8537 8.53846C11.561 8.53846 11.2683 8.53846 11.122 8.53846C10.0976 8.53846 7.90244 8.53846 7.90244 8.53846C7.90244 8.53846 7.90244 6.5641 7.90244 5.71795C7.90244 4.58974 8.48781 4.30769 9.5122 4.16667Z" fill="white"/>
</svg>
