<svg width="16" height="13" viewBox="0 0 16 13" fill="none" xmlns="http://www.w3.org/2000/svg">
<g clip-path="url(#clip0)">
<path d="M8.00009 7.20866L14.9092 0.688976C14.7274 0.594488 14.4546 0.5 14.1819 0.5H1.81827C1.45463 0.5 1.18191 0.594488 0.90918 0.783465L8.00009 7.20866Z" fill="#3D5D8F"/>
<path d="M16.0001 2.38976C16.0001 2.10629 15.9092 1.82283 15.8182 1.63385L11.1819 5.98031L15.8182 11.3661C15.9092 11.1772 16.0001 10.8937 16.0001 10.6102V2.38976Z" fill="#3D5D8F"/>
<path d="M10.2727 6.8307L8 9.00393L5.72727 6.92519L1 12.4055C1.27273 12.5 1.54545 12.5945 1.81818 12.5945H14.1818C14.4545 12.5945 14.7273 12.5 15 12.4055L10.2727 6.8307Z" fill="#3D5D8F"/>
<path d="M0.0909091 1.72836C0 1.91734 0 2.2008 0 2.38978V10.6103C0 10.8937 0.0909091 11.0827 0.181818 11.3662L4.81818 5.98033L0.0909091 1.72836Z" fill="#3D5D8F"/>
</g>
<defs>
<clipPath id="clip0">
<rect width="16" height="12" fill="white" transform="translate(0 0.5)"/>
</clipPath>
</defs>
</svg>
