<svg width="22" height="21" viewBox="0 0 22 21" fill="none" xmlns="http://www.w3.org/2000/svg">
<path d="M8.3 0C10.3687 0 12.3526 0.821783 13.8154 2.28457C15.2782 3.74735 16.1 5.73131 16.1 7.8C16.1 9.732 15.392 11.508 14.228 12.876L14.552 13.2H15.5L21.5 19.2L19.7 21L13.7 15V14.052L13.376 13.728C12.008 14.892 10.232 15.6 8.3 15.6C6.23131 15.6 4.24735 14.7782 2.78457 13.3154C1.32178 11.8526 0.5 9.86869 0.5 7.8C0.5 5.73131 1.32178 3.74735 2.78457 2.28457C4.24735 0.821783 6.23131 0 8.3 0ZM8.3 2.4C5.3 2.4 2.9 4.8 2.9 7.8C2.9 10.8 5.3 13.2 8.3 13.2C11.3 13.2 13.7 10.8 13.7 7.8C13.7 4.8 11.3 2.4 8.3 2.4Z" fill="white"/>
</svg>
