<svg width="21" height="21" viewBox="0 0 21 21" fill="none" xmlns="http://www.w3.org/2000/svg">
<path d="M7.8 0C9.86869 0 11.8526 0.821783 13.3154 2.28457C14.7782 3.74735 15.6 5.73131 15.6 7.8C15.6 9.732 14.892 11.508 13.728 12.876L14.052 13.2H15L21 19.2L19.2 21L13.2 15V14.052L12.876 13.728C11.508 14.892 9.732 15.6 7.8 15.6C5.73131 15.6 3.74735 14.7782 2.28457 13.3154C0.821783 11.8526 0 9.86869 0 7.8C0 5.73131 0.821783 3.74735 2.28457 2.28457C3.74735 0.821783 5.73131 0 7.8 0ZM7.8 2.4C4.8 2.4 2.4 4.8 2.4 7.8C2.4 10.8 4.8 13.2 7.8 13.2C10.8 13.2 13.2 10.8 13.2 7.8C13.2 4.8 10.8 2.4 7.8 2.4Z" fill="#3D5D8F"/>
</svg>
