<svg width="13" height="18" viewBox="0 0 13 18" fill="none" xmlns="http://www.w3.org/2000/svg">
<path d="M13 15.4481V15.2658C13 14.719 12.4754 13.9899 11.9508 13.6253L10.2022 12.5316C9.6776 12.1671 8.97814 12.3494 8.45355 12.5316L7.57924 13.0785C5.13115 11.8025 3.55738 9.25063 3.38251 6.33418L4.25683 5.78734C4.78142 5.42278 5.13115 4.69367 5.13115 4.14684V1.95949C5.13115 1.41266 4.78142 0.683544 4.25683 0.318987L3.9071 0.136709C3.55738 -0.0455696 2.68306 -0.0455696 2.15847 0.136709L0.934426 1.0481C0.759563 1.23038 0.409836 1.77722 0.409836 1.77722C-0.464481 5.24051 0.0601092 9.06835 1.98361 11.9848C3.73224 15.0835 6.70492 17.2709 10.0273 18C10.0273 18 10.5519 18 10.9016 17.8177L12.3005 17.0886C12.6503 16.7241 13 15.9949 13 15.4481Z" fill="#3D5D8F"/>
</svg>
