<svg width="17" height="17" viewBox="0 0 17 17" fill="none" xmlns="http://www.w3.org/2000/svg">
<path d="M8.42478 0C3.76106 0 0 3.76106 0 8.42478C0 13.0885 3.76106 16.8496 8.42478 16.8496C13.0885 16.8496 16.8496 13.0885 16.8496 8.42478C16.8496 3.76106 13.2389 0 8.42478 0ZM12.1858 12.9381C11.885 13.2389 11.5841 13.2389 11.2832 13.2389C10.8319 13.2389 10.531 13.0885 10.2301 12.9381L7.22124 9.77876C7.0708 9.47788 6.92035 9.17699 6.92035 8.87611V4.21239C6.92035 3.46018 7.52212 2.85841 8.27434 2.85841C9.02655 2.85841 9.62832 3.46018 9.62832 4.21239V8.27434L12.1858 10.9823C12.7876 11.5841 12.7876 12.4867 12.1858 12.9381Z" fill="#3D5D8F"/>
</svg>
