<svg width="21" height="15" viewBox="0 0 21 15" fill="none" xmlns="http://www.w3.org/2000/svg">
<g clip-path="url(#clip0)">
<path d="M5.3999 10.2C6.9999 8.59999 8.5999 6.99999 10.1999 5.39999C11.7999 6.89999 13.3999 8.49999 14.9999 10.1C13.3999 11.7 11.7999 13.3 10.1999 14.8C8.5999 13.3 6.9999 11.8 5.3999 10.2Z" fill="#3D5D8F"/>
<path d="M0 4.7C1.6 3.1 3.2 1.5 4.8 0C6.4 1.5 8 3.1 9.6 4.7C8 6.3 6.4 7.9 4.8 9.4C3.2 7.9 1.6 6.3 0 4.7Z" fill="#3D5D8F"/>
<path d="M15.6 9.4C14.1 7.9 12.5 6.3 10.8 4.7C12.4 3.1 14 1.5 15.6 0C17.2 1.5 18.8 3.1 20.4 4.7C18.8 6.3 17.2 7.9 15.6 9.4Z" fill="#3D5D8F"/>
</g>
<defs>
<clipPath id="clip0">
<rect width="20.4" height="14.9" fill="white"/>
</clipPath>
</defs>
</svg>
