<svg width="22" height="14" viewBox="0 0 22 14" fill="none" xmlns="http://www.w3.org/2000/svg">
<path d="M21.8829 12.2107C21.8829 12.1033 21.8829 12.1033 21.7787 12.1033C21.3619 11.3512 20.6324 10.4917 19.5904 9.52479C19.0694 9.09504 18.7568 8.77273 18.6526 8.55785C18.4441 8.23554 18.3399 7.91322 18.4441 7.59091C18.5484 7.37603 18.861 6.83884 19.4862 6.08678C19.7988 5.65702 20.0072 5.33471 20.2156 5.11983C21.5703 3.29339 22.0913 2.11157 21.9871 1.68182L21.8829 1.3595C21.8829 1.25207 21.6745 1.25207 21.5703 1.14463C21.3619 1.03719 21.1535 1.03719 20.8408 1.14463H17.5063C17.4021 1.14463 17.4021 1.14463 17.2979 1.14463C17.1937 1.14463 17.1937 1.14463 17.1937 1.14463H17.0895L16.9853 1.25207C16.9853 1.3595 16.8811 1.3595 16.8811 1.46694C16.5685 2.43388 16.1517 3.29339 15.6306 4.15289C15.318 4.69008 15.1096 5.0124 14.9012 5.44215C14.5886 5.8719 14.3802 6.08678 14.1718 6.30165C13.9634 6.51653 13.8592 6.62397 13.755 6.73141C13.6508 6.83884 13.5465 6.83884 13.4423 6.83884C13.3381 6.83884 13.3381 6.83884 13.2339 6.83884C13.1297 6.73141 13.0255 6.62397 13.0255 6.51653C12.9213 6.40909 12.9213 6.19421 12.9213 6.08678C12.9213 5.8719 12.9213 5.76446 12.9213 5.65702C12.9213 5.54959 12.9213 5.33471 12.9213 5.11983C12.9213 4.90496 12.9213 4.69008 12.9213 4.58264C12.9213 4.26033 12.9213 3.93802 12.9213 3.6157C12.9213 3.29339 12.9213 2.97107 12.9213 2.7562C12.9213 2.54132 12.9213 2.32645 12.9213 2.11157C12.9213 1.89669 12.9213 1.68182 12.9213 1.57438C12.9213 1.46694 12.8171 1.3595 12.8171 1.14463C12.7129 1.03719 12.7129 0.929752 12.6087 0.822314C12.5045 0.714876 12.4003 0.714876 12.1919 0.714876C11.7751 0.607438 11.2541 0.5 10.6288 0.5C9.16997 0.5 8.23213 0.607438 7.81532 0.822314C7.71111 0.822314 7.5027 1.03719 7.3985 1.14463C7.2943 1.3595 7.2943 1.3595 7.3985 1.46694C7.81532 1.46694 8.12793 1.68182 8.33634 1.89669L8.44054 2.00413C8.44054 2.21901 8.54475 2.32645 8.54475 2.64876C8.64895 2.86364 8.64895 3.18595 8.64895 3.50826C8.64895 4.04545 8.64895 4.58264 8.64895 5.0124C8.64895 5.44215 8.54475 5.76446 8.54475 5.97934C8.54475 6.19421 8.44054 6.30165 8.44054 6.51653C8.33634 6.62397 8.33634 6.73141 8.23213 6.73141C8.23213 6.73141 8.23213 6.73141 8.12793 6.83884C8.02373 6.83884 7.91952 6.94628 7.81532 6.94628C7.71111 6.94628 7.60691 6.83884 7.3985 6.73141C7.3985 6.62397 7.19009 6.40909 7.08589 6.19421C6.87748 6.08678 6.66907 5.76446 6.46066 5.44215C6.25225 5.11983 6.04385 4.69008 5.83544 4.15289L5.62703 3.83058C5.52282 3.6157 5.41862 3.29339 5.21021 2.86364C5.0018 2.43388 4.79339 2.00413 4.68919 1.68182C4.58499 1.46694 4.48078 1.3595 4.37658 1.25207H4.27237C4.27237 1.25207 4.16817 1.14463 4.06396 1.14463C3.95976 1.14463 3.85556 1.03719 3.75135 1.03719H0.625225C0.312613 1.03719 0.104204 1.14463 0 1.25207V1.3595C0 1.3595 0 1.46694 0 1.57438C0 1.68182 0 1.78926 0.104204 1.89669C0.521021 2.97107 1.04204 4.04545 1.56306 5.11983C2.08408 6.19421 2.60511 6.94628 2.91772 7.59091C3.33454 8.23554 3.75135 8.88017 4.16817 9.41736C4.58499 9.95455 4.8976 10.3843 5.0018 10.4917C5.10601 10.5992 5.21021 10.7066 5.31442 10.814L5.62703 11.1364C5.83544 11.3512 6.04384 11.5661 6.46066 11.781C6.77327 11.9959 7.19009 12.3182 7.60691 12.5331C8.02373 12.7479 8.54475 12.9628 9.06577 13.1777C9.69099 13.3926 10.212 13.3926 10.733 13.3926H12.0877C12.4003 13.3926 12.6087 13.2851 12.7129 13.1777V13.0702C12.7129 13.0702 12.8171 12.9628 12.8171 12.8554C12.8171 12.7479 12.8171 12.6405 12.8171 12.5331C12.8171 12.2107 12.8171 11.8884 12.9213 11.5661C13.0255 11.2438 13.0255 11.1364 13.1297 10.9215C13.2339 10.814 13.2339 10.7066 13.3381 10.5992C13.4423 10.5992 13.5465 10.4917 13.5465 10.4917H13.6508C13.8592 10.3843 14.0676 10.4917 14.276 10.7066C14.4844 10.9215 14.797 11.1364 15.0054 11.3512C15.2138 11.6736 15.5264 11.8884 15.839 12.3182C16.1517 12.6405 16.4643 12.9628 16.6727 13.0702L16.8811 13.1777C16.9853 13.2851 17.1937 13.3926 17.5063 13.3926C17.7147 13.5 17.9231 13.5 18.1315 13.5H21.0493C21.3619 13.5 21.5703 13.5 21.6745 13.3926C21.8829 13.2851 21.8829 13.1777 21.9871 13.0702C21.9871 12.9628 21.9871 12.8554 21.9871 12.6405C21.9871 12.3182 21.9871 12.2107 21.8829 12.2107Z" fill="white"/>
</svg>
