<svg width="23" height="24" viewBox="0 0 23 24" fill="none" xmlns="http://www.w3.org/2000/svg">
<path d="M8.54286 0.5C10.8086 0.5 12.9815 1.40005 14.5836 3.00214C16.1857 4.60424 17.0857 6.77715 17.0857 9.04286C17.0857 11.1589 16.3103 13.104 15.0354 14.6023L15.3903 14.9571H16.4286L23 21.5286L21.0286 23.5L14.4571 16.9286V15.8903L14.1023 15.5354C12.604 16.8103 10.6589 17.5857 8.54286 17.5857C6.27715 17.5857 4.10424 16.6857 2.50214 15.0836C0.900048 13.4815 0 11.3086 0 9.04286C0 6.77715 0.900048 4.60424 2.50214 3.00214C4.10424 1.40005 6.27715 0.5 8.54286 0.5ZM8.54286 3.12857C5.25714 3.12857 2.62857 5.75714 2.62857 9.04286C2.62857 12.3286 5.25714 14.9571 8.54286 14.9571C11.8286 14.9571 14.4571 12.3286 14.4571 9.04286C14.4571 5.75714 11.8286 3.12857 8.54286 3.12857Z" fill="#373737"/>
<path d="M8.5 5.5V12.5M5 9H12" stroke="#373737" stroke-width="1.4"/>
</svg>
