<svg width="25" height="16" viewBox="0 0 25 16" fill="none" xmlns="http://www.w3.org/2000/svg">
<path d="M15.5628 7.99369C15.5628 9.47164 15.2639 10.7897 14.666 11.9479C14.0681 13.099 13.216 13.9978 12.1096 14.6444C11.0032 15.2981 9.73528 15.625 8.30588 15.625C7.28194 15.625 6.30266 15.4189 5.36806 15.0068C4.43345 14.5947 3.62941 14.0405 2.95595 13.3441C2.28248 12.6478 1.74646 11.8165 1.34787 10.8501C0.949291 9.88375 0.75 8.87122 0.75 7.8125C0.75 6.75378 0.949291 5.74125 1.34787 4.7749C1.74646 3.80855 2.28248 2.97721 2.95595 2.28087C3.62941 1.58453 4.43345 1.0303 5.36806 0.618178C6.30266 0.206059 7.28194 0 8.30588 0C10.2713 0 11.9584 0.682128 13.3672 2.04639L11.3159 4.08211C10.5118 3.27919 9.5085 2.87773 8.30588 2.87773C7.46061 2.87773 6.67719 3.098 5.95562 3.53854C5.24092 3.97908 4.67397 4.5795 4.25477 5.33979C3.83558 6.09297 3.62598 6.91721 3.62598 7.8125C3.62598 8.70779 3.83558 9.53559 4.25477 10.2959C4.67397 11.0491 5.24092 11.6459 5.95562 12.0865C6.67719 12.527 7.46061 12.7473 8.30588 12.7473C8.87627 12.7473 9.39855 12.6656 9.87272 12.5021C10.3538 12.3387 10.7489 12.1362 11.0582 11.8946C11.3674 11.6459 11.6354 11.3653 11.8622 11.0526C12.0958 10.74 12.2642 10.4451 12.3673 10.168C12.4773 9.89086 12.5528 9.62796 12.5941 9.37926H8.30588V6.69338H15.4391C15.5216 7.14103 15.5628 7.57447 15.5628 7.99369ZM24.5 6.69338V8.93162H22.3456V11.1592H20.1809V8.93162H18.0265V6.69338H20.1809V4.46581H22.3456V6.69338H24.5Z" fill="white"/>
</svg>
