<svg width="58" height="49" viewBox="0 0 58 49" fill="none" xmlns="http://www.w3.org/2000/svg">
<g clip-path="url(#clip0)">
<path d="M2 47.3H55.2C55.8 47.3 56.2 46.9 56.2 46.3V39.2H1V46.3C1 46.8 1.4 47.3 2 47.3Z" stroke="#3D5D8F" stroke-width="2" stroke-miterlimit="10" stroke-linecap="round"/>
<path d="M1 39.2H29.7V33.1H5.1C2.9 33.1 1 34.9 1 37.2V39.2Z" stroke="#3D5D8F" stroke-width="2" stroke-miterlimit="10" stroke-linecap="round"/>
<path d="M56.1999 39.2V2.7C56.1999 2 55.6999 1.5 54.9999 1.5H5.8999C3.9999 1.5 2.3999 3.1 2.3999 5V15.6C2.3999 17.5 3.9999 19.1 5.8999 19.1H15.3999C15.3999 19.1 16.9999 14 20.3999 14C23.7999 14 29.6999 14 29.6999 14V39.2" stroke="#3D5D8F" stroke-width="2" stroke-miterlimit="10" stroke-linecap="round"/>
<path d="M8.3999 1.5V19.1" stroke="#3D5D8F" stroke-width="2" stroke-miterlimit="10" stroke-linecap="round"/>
<path d="M14.5 1.5V19.1" stroke="#3D5D8F" stroke-width="2" stroke-miterlimit="10" stroke-linecap="round"/>
<path d="M34.7 39.2V14.9C34.7 13.6 35.7 12.6 37 12.6H48.7999C50.0999 12.6 51.0999 13.6 51.0999 14.9V39.1" stroke="#3D5D8F" stroke-width="2" stroke-miterlimit="10" stroke-linecap="round"/>
<path d="M42.9001 33.1C45.5511 33.1 47.7001 30.951 47.7001 28.3C47.7001 25.649 45.5511 23.5 42.9001 23.5C40.2491 23.5 38.1001 25.649 38.1001 28.3C38.1001 30.951 40.2491 33.1 42.9001 33.1Z" stroke="#3D5D8F" stroke-width="2" stroke-miterlimit="10" stroke-linecap="round"/>
<path d="M11.3999 22.9V27.7" stroke="#3D5D8F" stroke-width="2" stroke-miterlimit="10" stroke-linecap="round"/>
<path d="M9.5 27.7H13.4" stroke="#3D5D8F" stroke-width="2" stroke-miterlimit="10" stroke-linecap="round"/>
<path d="M20.2 10.4V13.9" stroke="#3D5D8F" stroke-width="2" stroke-miterlimit="10" stroke-linecap="round"/>
<path d="M23.7 10.4V13.9" stroke="#3D5D8F" stroke-width="2" stroke-miterlimit="10" stroke-linecap="round"/>
<path d="M27.3999 10.4V13.9" stroke="#3D5D8F" stroke-width="2" stroke-miterlimit="10" stroke-linecap="round"/>
<path d="M38.1001 18.3H47.7001" stroke="#3D5D8F" stroke-width="2" stroke-miterlimit="10" stroke-linecap="round"/>
</g>
<defs>
<clipPath id="clip0">
<rect width="57.2" height="47.8" fill="white" transform="translate(0 0.5)"/>
</clipPath>
</defs>
</svg>
