<svg width="59" height="50" viewBox="0 0 59 50" fill="none" xmlns="http://www.w3.org/2000/svg">
<g clip-path="url(#clip0)">
<path fill-rule="evenodd" clip-rule="evenodd" d="M25.7 1C25.8 1 26 1 26.1 1C26.1 1.2 26 1.5 26 1.7C25.7 2.5 25.9 3.1 26.7 3.5C27 3.7 27.4 3.8 27.7 3.9C28.7 4.2 29.6 4.4 30.6 4.8C32.7 5.6 34.1 7.1 34.3 9.4C34.4 10.5 34.3 11.5 34.3 12.6C34.3 14.1 34.3 15.5 34.3 17C34.3 17.4 34.4 17.7 34.8 17.9C35.1 18 35.2 18.3 35.1 18.6C34.8 20.2 34.5 21.7 34.2 23.2C34.1 23.7 30.2 29.4 30.3 29.8C30.4 30.8 30.9 31.5 31 32.5C31 32.8 32.3 33.1 32.6 33.3C33 33.5 33.2 33.8 33.4 34.2C33.6 34.8 33.7 35.3 34 35.9C34.1 36.1 34.3 36.3 34.4 36.4C35.8 37.2 37.3 37.9 38.7 38.7C41 39.9 43.3 41.1 45.5 42.3C46.1 42.6 46.3 43 46.3 43.6C46.3 44.8 46.3 46.1 46.3 47.3C46.3 47.9 46.2 48.3 45.6 48.6C31 48.6 16.3 48.6 1.7 48.6C1.1 48.3 1 47.8 1 47.3C1 46.1 1 44.8 1 43.6C1 43 1.2 42.6 1.8 42.3C3.5 41.4 5.2 40.5 6.9 39.6C8.9 38.5 11 37.5 13 36.4C13.2 36.3 13.4 36.1 13.4 35.9C13.6 35.3 13.7 34.7 14 34.2C14.1 33.9 15.4 33.6 15.7 33.3C16 33.1 16.6 32.8 16.7 32.4C16.8 31.6 17.3 31 17.4 30.2C17.5 29.5 13.6 24.9 13.4 24.1C13.2 23.2 12.9 22.3 12.7 21.4C12.5 20.5 12.4 19.6 12.2 18.7C12.1 18.4 12.2 18 12.5 17.9C13 17.7 13 17.3 13 16.8C13 14.5 13 12.2 13 9.8C13 9.2 13.1 8.6 13.3 8C13.8 6.5 14.9 5.4 16.4 4.7C18.4 3.8 20.4 3 22.5 2.1C23.5 1.8 24.6 1.4 25.7 1Z" stroke="#3D5D8F" stroke-width="2" stroke-miterlimit="10" stroke-linecap="round"/>
<g clip-path="url(#clip1)">
<path d="M16.5715 33.9091L24.0001 39.4243L19.4287 42.0909L13.0715 37.0606" stroke="#3D5D8F" stroke-width="2" stroke-miterlimit="10" stroke-linecap="round" stroke-linejoin="round"/>
<path d="M31.4286 33.9091L24 39.4849L28.5 42.0909L34.9286 37.0606" stroke="#3D5D8F" stroke-width="2" stroke-miterlimit="10" stroke-linecap="round" stroke-linejoin="round"/>
</g>
<path d="M38 13C38.2 12.9 38.5 12.8 38.7 12.7C39.5 12.4 40.3 12.1 41.2 11.8C41.3 11.8 41.4 11.8 41.5 11.8C41.5 12 41.5 12.2 41.4 12.4C41.2 13 41.3 13.5 41.9 13.8C42.1 13.9 42.4 14 42.7 14.1C43.4 14.3 44.2 14.5 44.9 14.8C46.5 15.4 47.6 16.6 47.8 18.4C47.9 19.2 47.8 20 47.8 20.9C47.8 22 47.8 23.2 47.8 24.3C47.8 24.6 47.9 24.9 48.2 25C48.4 25.1 48.5 25.3 48.5 25.6C48.3 26.8 48 28 47.8 29.2C47.7 29.6 44.7 34 44.8 34.3C44.9 35 45.3 35.6 45.4 36.4C45.4 36.7 46.4 36.9 46.6 37C46.9 37.1 47.1 37.4 47.2 37.7C47.3 38.1 47.5 38.6 47.6 39C47.7 39.2 47.8 39.3 47.9 39.4C49 40 50.1 40.6 51.2 41.2C53 42.1 54.7 43.1 56.5 44C56.9 44.2 57.1 44.5 57.1 45C57.1 46 57.1 46.9 57.1 47.9C57.1 48.3 57 48.7 56.6 48.9C55 48.9 53.4 48.9 51.7 48.9" stroke="#3D5D8F" stroke-width="2" stroke-miterlimit="10" stroke-linecap="round"/>
</g>
<defs>
<clipPath id="clip0">
<rect width="58.1" height="49.6" fill="white"/>
</clipPath>
<clipPath id="clip1">
<rect width="24" height="10" fill="white" transform="translate(12 33)"/>
</clipPath>
</defs>
</svg>
