<svg width="56" height="49" viewBox="0 0 56 49" fill="none" xmlns="http://www.w3.org/2000/svg">
<g clip-path="url(#clip0)">
<path d="M46.9 5.90002C46.9 5.90002 48.5 5.90002 50.5 5.90002C52.5 5.90002 54.1 7.80002 54.1 10.2V43.5C54.1 45.9 52.2 47.8 49.8 47.8H5.3C2.9 47.8 1 45.9 1 43.5V10.2C1 7.80002 2.9 5.90002 5.3 5.90002H9.6" stroke="#3D5D8F" stroke-width="2" stroke-miterlimit="10" stroke-linecap="round"/>
<path d="M20.7 5.90002H36.2999" stroke="#3D5D8F" stroke-width="2" stroke-miterlimit="10" stroke-linecap="round"/>
<path d="M1.3999 17.1H54.0999" stroke="#3D5D8F" stroke-width="2" stroke-miterlimit="10" stroke-linecap="round"/>
<path d="M15.2 1V10.8" stroke="#3D5D8F" stroke-width="2" stroke-miterlimit="10" stroke-linecap="round"/>
<path d="M41.7 1V10.8" stroke="#3D5D8F" stroke-width="2" stroke-miterlimit="10" stroke-linecap="round"/>
<path d="M21.6 35.3C21.6 36 21.5 36.6 21.2 37.2C20.9 37.8 20.6 38.3 20.1 38.7C19.6 39.1 19 39.5 18.3 39.7C17.6 39.9 16.8 40.1 15.8 40.1C14.7 40.1 13.8 39.9 13.1 39.6C12.4 39.3 11.8 38.9 11.4 38.5C11 38.1 10.6 37.6 10.5 37C10.3 36.5 10.2 36 10.2 35.5C10.2 35 10.3 34.6 10.4 34.2C10.5 33.8 10.7 33.5 10.9 33.1C11.1 32.8 11.4 32.5 11.6 32.2C11.9 31.9 12.2 31.7 12.5 31.5C11.8 31 11.3 30.4 11 29.9C10.7 29.4 10.5 28.7 10.5 27.9C10.5 27.3 10.6 26.7 10.9 26.1C11.2 25.5 11.5 25 12 24.6C12.5 24.2 13 23.8 13.7 23.6C14.4 23.4 15.1 23.2 15.9 23.2C16.8 23.2 17.6 23.3 18.3 23.6C19 23.9 19.5 24.2 20 24.6C20.4 25 20.7 25.5 20.9 26C21.1 26.5 21.2 27 21.2 27.5C21.2 28.2 21 28.9 20.6 29.6C20.2 30.2 19.7 30.7 19.1 31.1C20 31.7 20.6 32.3 21 32.9C21.4 33.7 21.6 34.4 21.6 35.3ZM13.6 35.4C13.6 35.6 13.6 35.8 13.7 36C13.8 36.2 13.9 36.4 14.1 36.6C14.3 36.8 14.5 36.9 14.8 37.1C15.1 37.2 15.4 37.3 15.9 37.3C16.7 37.3 17.3 37.1 17.7 36.7C18.1 36.3 18.3 35.9 18.3 35.4C18.3 35 18.2 34.7 18.1 34.4C17.9 34.1 17.7 33.9 17.4 33.7C17.1 33.5 16.8 33.3 16.4 33.1C16 32.9 15.6 32.8 15.2 32.6C14.8 32.9 14.4 33.3 14.1 33.7C13.7 34.3 13.6 34.8 13.6 35.4ZM17.9 27.8C17.9 27.6 17.9 27.5 17.8 27.3C17.7 27.1 17.6 26.9 17.5 26.8C17.3 26.6 17.1 26.5 16.9 26.4C16.7 26.3 16.4 26.2 16 26.2C15.7 26.2 15.4 26.3 15.1 26.4C14.9 26.5 14.6 26.7 14.5 26.8C14.3 27 14.2 27.2 14.1 27.4C14 27.6 14 27.8 14 28C14 28.5 14.2 29 14.5 29.4C14.9 29.8 15.5 30.2 16.4 30.5C16.9 30.2 17.3 29.8 17.5 29.4C17.7 28.9 17.9 28.4 17.9 27.8Z" fill="#3D5D8F"/>
<path d="M27.2 34.9C27.2 35.1 27.2 35.4 27.2 35.7C27.2 36 27.2 36.2 27.1 36.5C27.1 36.8 27 37 27 37.3C26.9 37.6 26.9 37.8 26.8 38C26.7 38.3 26.6 38.5 26.4 38.7C26.2 38.9 26 39.1 25.8 39.3C25.6 39.5 25.3 39.6 24.9 39.8C24.6 39.9 24.2 40 23.7 40L23.5 38.5C23.9 38.4 24.3 38.3 24.5 38.1C24.7 37.9 24.9 37.7 25 37.5C25.1 37.3 25.2 37.1 25.2 36.8C25.3 36.5 25.3 36.2 25.3 35.9C25.3 35.6 25.3 35.3 25.3 35C25.3 34.7 25.3 34.4 25.3 34.1V33.4H30.2V40H28.3V35H27.2V34.9Z" fill="#3D5D8F"/>
<path d="M31.8 36.7C31.8 36.1 31.9 35.6 32.1 35.2C32.3 34.8 32.5 34.4 32.8 34.1C33.1 33.8 33.4 33.6 33.8 33.4C34.2 33.3 34.6 33.2 35 33.2C35.9 33.2 36.7001 33.5 37.2001 34.1C37.7001 34.7 38 35.5 38 36.6C38 36.7 38 36.8 38 37C38 37.1 38 37.2 38 37.3H33.8C33.8 37.7 34 38 34.3 38.2C34.6 38.4 35 38.5 35.6 38.5C35.9 38.5 36.3 38.5 36.6 38.4C36.9 38.3 37.2001 38.3 37.4001 38.2L37.6 39.7C37.5 39.7 37.4001 39.8 37.2001 39.8C37.0001 39.8 36.8 39.9 36.6 39.9C36.4 40 36.2 40 36 40C35.8 40 35.5 40 35.3 40C34.7 40 34.2 39.9 33.8 39.7C33.4 39.5 33.0001 39.3 32.7001 39C32.4001 38.7 32.2 38.3 32.1 37.9C31.9 37.6 31.8 37.2 31.8 36.7ZM36.2001 36C36.2001 35.8 36.2 35.7 36.1 35.5C36.1 35.4 36.0001 35.2 35.9001 35.1C35.8001 35 35.7 34.9 35.5 34.8C35.4 34.7 35.2 34.7 35 34.7C34.8 34.7 34.6 34.7 34.5 34.8C34.4 34.9 34.2 35 34.1 35.1C34 35.2 33.9001 35.4 33.9001 35.5C33.8001 35.7 33.8 35.8 33.8 36H36.2001Z" fill="#3D5D8F"/>
<path d="M44.7999 34.9H42.7V39.9H40.7999V34.9H38.7V33.4H44.7999V34.9Z" fill="#3D5D8F"/>
</g>
<defs>
<clipPath id="clip0">
<rect width="55.1" height="48.8" fill="white"/>
</clipPath>
</defs>
</svg>
